<svg id="レイヤー_1" data-name="レイヤー 1" xmlns="http://www.w3.org/2000/svg" viewBox="0 0 31.5 31.5"><title>000_airplane</title><path d="M23.42,31.18l-.19,0c-.82-.16-1.34-1.21-2-2.69-.09-.21-.17-.4-.25-.56l-.26-.57c-1.38-2.91-2.68-5.68-4.12-8.48a60.11,60.11,0,0,0-4.5,4.27l-1,1,.25,2.45a2.42,2.42,0,0,1-.57,1.91L10.3,29a1.67,1.67,0,0,1-1.44.68,1.67,1.67,0,0,1-1-1.14L6.4,25.1,3,23.7c-.47-.2-1-.49-1.13-1.06a1.68,1.68,0,0,1,.67-1.44L3,20.72a2.54,2.54,0,0,1,1.58-.55h.13a.62.62,0,0,1,.19,0l2.45.25c1-1,1.9-2,2.8-3s1.58-1.72,2.43-2.59c-2.77-1.43-5.52-2.72-8.4-4.08l-.59-.27L3,10.25C1.55,9.61.49,9.09.34,8.27a1.07,1.07,0,0,1,.33-1L1.9,6.06a3.05,3.05,0,0,1,2.49-.5L19,8.77l7.39-7.39a4,4,0,0,1,1-.71A3.69,3.69,0,0,1,28.44.34a2.85,2.85,0,0,1,1.1.09,2.34,2.34,0,0,1,1,.57,2.24,2.24,0,0,1,.57,1,2.54,2.54,0,0,1,.09,1.1,3.12,3.12,0,0,1-.33,1.09,3.52,3.52,0,0,1-.7,1l-7.4,7.4L25.94,27.1a2.71,2.71,0,0,1-.5,2.5l-1.23,1.23A1.1,1.1,0,0,1,23.42,31.18Zm-6.6-13.92H17a.62.62,0,0,1,.42.32c1.61,3.07,3,6.05,4.5,9.22l.26.56c.09.17.17.38.27.6a8.65,8.65,0,0,0,1,1.89l1.15-1.15a1.55,1.55,0,0,0,.16-1.34L21.43,12.46a.6.6,0,0,1,.17-.57l7.64-7.65a2.3,2.3,0,0,0,.47-.65,2.17,2.17,0,0,0,.21-.67,1.42,1.42,0,0,0-.05-.59,1,1,0,0,0-.26-.44.94.94,0,0,0-.43-.26,1.44,1.44,0,0,0-.59,0,1.89,1.89,0,0,0-.68.2,2.69,2.69,0,0,0-.65.47L19.62,9.9a.61.61,0,0,1-.57.17L8,7.64H8l-3.9-.86a2.2,2.2,0,0,0-1.34.16L1.63,8.1a9.69,9.69,0,0,0,1.9,1l.6.26.58.28c3.16,1.48,6.15,2.89,9.2,4.49a.61.61,0,0,1,.33.46.65.65,0,0,1-.17.54c-1.06,1-2,2.12-3,3.16s-2,2.13-3,3.2a.58.58,0,0,1-.5.18L4.85,21.4l-.15,0a1.91,1.91,0,0,0-.82.19l-.48.48a2.75,2.75,0,0,0-.27.29l.32.16L7.12,24a.63.63,0,0,1,.34.34L9,28.05a1.64,1.64,0,0,0,.15.32l.3-.26.48-.49a1.18,1.18,0,0,0,.21-.89L9.83,24a.65.65,0,0,1,.18-.51c.41-.41.81-.82,1.22-1.22a55.58,55.58,0,0,1,5.2-4.86A.61.61,0,0,1,16.82,17.26Z"/></svg>