<svg id="レイヤー_1" data-name="レイヤー 1" xmlns="http://www.w3.org/2000/svg" viewBox="0 0 32 32"><defs><style>.cls-1{fill-rule:evenodd;}</style></defs><title>038_yahoo</title><g id="y"><path id="パス_609" data-name="パス 609" class="cls-1" d="M.33,8.92l.12-1s0-.06.09-.08H12.38c0,.23-.07.44-.11.64a1.52,1.52,0,0,0,0,.21c0,.17-.11.22-.25.23-.7,0-1.4.09-2.09.15l-1.38.13c1.65,2.44,3.5,4.67,5.22,7,1.37-1.16,2.74-2.31,4.1-3.49a9.47,9.47,0,0,0,.86-.93,1.87,1.87,0,0,0,.22-.39l-1.34-.21-1.74-.22a.17.17,0,0,1-.11-.11c-.08-.34-.13-.68-.2-1H25.82l-.06.12c-.2.3-.4.61-.61.91a.3.3,0,0,1-.17.12c-.91.19-1.83.37-2.74.57a1.88,1.88,0,0,0-.54.29,39.56,39.56,0,0,0-3.42,2.61c-.88.75-1.74,1.54-2.59,2.32-.2.21-.39.42-.57.65a.91.91,0,0,0-.23.65v4.25l3.57.24c0,.39-.07.76-.11,1.12,0,.11-.09.08-.15.08l-1.49,0c-1.64,0-3.27,0-4.91,0-.87,0-1.74,0-2.61,0l-1.94,0H7.14c.05-.38.09-.75.14-1.15.37,0,.72,0,1.07,0A5.3,5.3,0,0,0,10,22.26a1,1,0,0,0,.7-1c0-1.11,0-2.23,0-3.35a.6.6,0,0,0-.11-.39c-.42-.58-.83-1.18-1.26-1.74C8,14,6.63,12.35,5.19,10.75c-.32-.36-.66-.68-1-1a1.06,1.06,0,0,0-.67-.34c-.8-.1-1.59-.21-2.39-.33Z"/><path id="パス_610" data-name="パス 610" class="cls-1" d="M24.07,19.59c1.05-3.43,2.1-6.85,3.15-10.29l4.48,1.37-.21.34-3.67,6.2c-.57.95-1.13,1.91-1.69,2.86-.06.11-.11.13-.23.09l-1.7-.52Z"/><path id="パス_611" data-name="パス 611" class="cls-1" d="M25.52,22.06a.49.49,0,0,0,0,.11l-.9,2L22,23.44c.05-.13.1-.25.16-.38.24-.57.49-1.13.73-1.7,0-.08.07-.14.17-.09a19.13,19.13,0,0,0,2.44.76Z"/></g></svg>