<svg id="レイヤー_1" data-name="レイヤー 1" xmlns="http://www.w3.org/2000/svg" viewBox="0 0 32 32"><title>034_youtube</title><path d="M13.31,27c-6-.11-8-.21-9.26-.47a4.08,4.08,0,0,1-2.13-1.1,4.51,4.51,0,0,1-1-1.94,13.22,13.22,0,0,1-.43-2.85,69.45,69.45,0,0,1,0-9.24C.67,9.67.77,7.65,2,6.46a4.24,4.24,0,0,1,2.09-1A116.06,116.06,0,0,1,16,5a116.21,116.21,0,0,1,11.88.42,4.1,4.1,0,0,1,2.45,1.45c1.16,1.83,1.18,4.1,1.3,5.88.05.85.05,5.67,0,6.51-.19,2.82-.33,3.81-.75,4.84A3.55,3.55,0,0,1,30,25.47a4.09,4.09,0,0,1-2.19,1.12c-5.16.39-9.55.47-14.53.39Zm7.91-11.3c-2.87-1.54-5.63-3-8.44-4.44v8.83c3-1.61,6.08-3.09,8.45-4.4Z"/></svg>