<svg id="レイヤー_1" data-name="レイヤー 1" xmlns="http://www.w3.org/2000/svg" viewBox="0 0 32 32"><title>037_google</title><path id="パス_605" data-name="パス 605" d="M2.23,8.93A15.76,15.76,0,0,1,16.31.25a15.11,15.11,0,0,1,10.54,4.1L22.33,8.87a8.49,8.49,0,0,0-6-2.36A9.48,9.48,0,0,0,7,16.13,9.6,9.6,0,0,0,7.5,19a9.49,9.49,0,0,0,12,6,9.28,9.28,0,0,0,2.13-1,7.2,7.2,0,0,0,3.15-4.75H16.31v-6.1H31.15a18.46,18.46,0,0,1,.28,3.23,15.34,15.34,0,0,1-4.69,11.57,15.06,15.06,0,0,1-10.43,3.82A15.75,15.75,0,0,1,.56,16h0A15.74,15.74,0,0,1,2.23,8.93Z"/></svg>