<svg id="レイヤー_1" data-name="レイヤー 1" xmlns="http://www.w3.org/2000/svg" viewBox="0 0 32 32"><title>035_instagram</title><path d="M16,3.28c4.14,0,4.63,0,6.27.09a8.66,8.66,0,0,1,2.88.54,4.82,4.82,0,0,1,1.78,1.16,4.82,4.82,0,0,1,1.16,1.78,8.66,8.66,0,0,1,.54,2.88c.07,1.64.09,2.13.09,6.27s0,4.63-.09,6.27a8.66,8.66,0,0,1-.54,2.88,5.15,5.15,0,0,1-2.94,2.94,8.66,8.66,0,0,1-2.88.54c-1.64.07-2.13.09-6.27.09s-4.63,0-6.27-.09a8.66,8.66,0,0,1-2.88-.54,4.82,4.82,0,0,1-1.78-1.16,4.82,4.82,0,0,1-1.16-1.78,8.66,8.66,0,0,1-.54-2.88c-.07-1.64-.09-2.13-.09-6.27s0-4.63.09-6.27a8.66,8.66,0,0,1,.54-2.88A4.82,4.82,0,0,1,5.07,5.07,4.82,4.82,0,0,1,6.85,3.91a8.66,8.66,0,0,1,2.88-.54c1.64-.07,2.13-.09,6.27-.09M16,.49c-4.21,0-4.74,0-6.39.09a11.6,11.6,0,0,0-3.77.72A7.93,7.93,0,0,0,1.3,5.84,11.6,11.6,0,0,0,.58,9.61C.51,11.26.49,11.79.49,16s0,4.74.09,6.39a11.6,11.6,0,0,0,.72,3.77A7.93,7.93,0,0,0,5.84,30.7a11.6,11.6,0,0,0,3.77.72c1.65.07,2.18.09,6.39.09s4.74,0,6.39-.09a11.6,11.6,0,0,0,3.77-.72,7.93,7.93,0,0,0,4.54-4.54,11.6,11.6,0,0,0,.72-3.77c.07-1.65.09-2.18.09-6.39s0-4.74-.09-6.39a11.6,11.6,0,0,0-.72-3.77A7.93,7.93,0,0,0,26.16,1.3,11.6,11.6,0,0,0,22.39.58C20.74.51,20.21.49,16,.49Z"/><path d="M16,8a8,8,0,1,0,8,8A8,8,0,0,0,16,8Zm0,13.13A5.17,5.17,0,1,1,21.17,16,5.16,5.16,0,0,1,16,21.17Z"/><circle cx="24.28" cy="7.72" r="1.86"/></svg>