<svg id="レイヤー_1" data-name="レイヤー 1" xmlns="http://www.w3.org/2000/svg" viewBox="0 0 32 32"><title>045_cal</title><path d="M27.14,2.74H22.7V.69a.59.59,0,1,0-1.17,0V2.74H10.36V.69a.59.59,0,1,0-1.17,0V2.74H4.86A3.45,3.45,0,0,0,1.42,6.18V28.46A3.45,3.45,0,0,0,4.86,31.9H27.14a3.45,3.45,0,0,0,3.44-3.44V6.18A3.45,3.45,0,0,0,27.14,2.74ZM4.86,3.91H9.19V5.67a.59.59,0,1,0,1.17,0V3.91H21.53V5.67a.59.59,0,1,0,1.17,0V3.91h4.44a2.27,2.27,0,0,1,2.27,2.27V9.56H2.59V6.18A2.27,2.27,0,0,1,4.86,3.91ZM27.14,30.72H4.86a2.27,2.27,0,0,1-2.27-2.26V10.73H29.41V28.46A2.27,2.27,0,0,1,27.14,30.72ZM20.86,15.06a.59.59,0,0,1-.58.59h-3a.59.59,0,0,1,0-1.18h3A.59.59,0,0,1,20.86,15.06Zm5.52,0a.59.59,0,0,1-.58.59h-3a.59.59,0,0,1,0-1.18h3A.59.59,0,0,1,26.38,15.06ZM9.82,19a.58.58,0,0,1-.58.59h-3a.59.59,0,0,1,0-1.17h3A.58.58,0,0,1,9.82,19Zm5.52,0a.58.58,0,0,1-.58.59h-3a.59.59,0,0,1,0-1.17h3A.58.58,0,0,1,15.34,19Zm5.52,0a.58.58,0,0,1-.58.59h-3a.59.59,0,0,1,0-1.17h3A.58.58,0,0,1,20.86,19Zm5.52,0a.58.58,0,0,1-.58.59h-3a.59.59,0,0,1,0-1.17h3A.58.58,0,0,1,26.38,19ZM9.82,23a.58.58,0,0,1-.58.59h-3a.59.59,0,0,1,0-1.17h3A.58.58,0,0,1,9.82,23Zm5.52,0a.58.58,0,0,1-.58.59h-3a.59.59,0,0,1,0-1.17h3A.58.58,0,0,1,15.34,23Zm5.52,0a.58.58,0,0,1-.58.59h-3a.59.59,0,0,1,0-1.17h3A.58.58,0,0,1,20.86,23Zm5.52,0a.58.58,0,0,1-.58.59h-3a.59.59,0,0,1,0-1.17h3A.58.58,0,0,1,26.38,23ZM9.82,26.91a.58.58,0,0,1-.58.59h-3a.59.59,0,0,1,0-1.17h3A.58.58,0,0,1,9.82,26.91Zm5.52,0a.58.58,0,0,1-.58.59h-3a.59.59,0,0,1,0-1.17h3A.58.58,0,0,1,15.34,26.91Z"/></svg>