<svg id="レイヤー_1" data-name="レイヤー 1" xmlns="http://www.w3.org/2000/svg" viewBox="0 0 32 32"><title>036_line</title><path id="パス_607" data-name="パス 607" d="M26.59,14a.83.83,0,0,1-.84.83H23.43v1.49h2.32a.82.82,0,0,1,.84.82.84.84,0,0,1-.77.85H22.59a.83.83,0,0,1-.82-.84V10.85A.84.84,0,0,1,22.6,10h3.15a.84.84,0,0,1,.84.84.83.83,0,0,1-.84.83H23.43v1.49h2.32a.85.85,0,0,1,.84.84ZM20.08,18a.75.75,0,0,1-.26,0,.79.79,0,0,1-.68-.33L15.9,13.27v3.89a.85.85,0,0,1-.9.77.84.84,0,0,1-.76-.77V10.85a.81.81,0,0,1,.82-.83h0a.89.89,0,0,1,.66.33L19,14.76V10.85a.83.83,0,1,1,1.66,0h0v6.31a.82.82,0,0,1-.57.79ZM12.22,18a.84.84,0,0,1-.83-.84V10.85a.83.83,0,0,1,1.66,0v6.31a.84.84,0,0,1-.84.84ZM9.79,18H6.62a.85.85,0,0,1-.83-.84V10.85a.84.84,0,0,1,1.67,0v5.48H9.78a.84.84,0,0,1,.84.83.85.85,0,0,1-.84.84h0ZM16,.87C7.24.87.11,6.66.11,13.77c0,6.37,5.65,11.7,13.29,12.72.52.11,1.22.34,1.4.78a3.28,3.28,0,0,1,0,1.43l-.22,1.35c-.06.39-.32,1.57,1.39.85s9.16-5.4,12.49-9.23a11.47,11.47,0,0,0,3.38-7.9C31.89,6.66,24.76.87,16,.87Z"/></svg>