<svg id="レイヤー_1" data-name="レイヤー 1" xmlns="http://www.w3.org/2000/svg" viewBox="0 0 32 32"><title>033_twitter</title><path d="M31.64,6.3a13,13,0,0,1-3.69,1,6.46,6.46,0,0,0,2.83-3.55A13.08,13.08,0,0,1,26.7,5.32,6.42,6.42,0,0,0,15.6,9.71a7,7,0,0,0,.16,1.46A18.21,18.21,0,0,1,2.54,4.47a6.41,6.41,0,0,0,2,8.56,6.32,6.32,0,0,1-2.91-.8v.08A6.42,6.42,0,0,0,6.77,18.6a6.32,6.32,0,0,1-1.69.23,6,6,0,0,1-1.21-.12,6.41,6.41,0,0,0,6,4.46,12.86,12.86,0,0,1-8,2.75,13.08,13.08,0,0,1-1.53-.09,18.19,18.19,0,0,0,9.84,2.88c11.8,0,18.26-9.78,18.26-18.26,0-.28,0-.55,0-.83a13,13,0,0,0,3.2-3.32Z"/></svg>