<svg id="レイヤー_1" data-name="レイヤー 1" xmlns="http://www.w3.org/2000/svg" viewBox="0 0 32 32"><title>046_chart</title><path d="M5.12,25.18a.48.48,0,0,0,.48-.48V24h.61a.48.48,0,0,0,.48-.48V16.83a.47.47,0,0,0-.48-.48H5.6v-.74a.49.49,0,0,0-.48-.48.48.48,0,0,0-.48.48v.74H4a.47.47,0,0,0-.48.48v6.66A.48.48,0,0,0,4,24h.62v.73A.47.47,0,0,0,5.12,25.18ZM4.5,17.31H5.73V23H4.5Zm5.22,7.11a.48.48,0,0,0,.48-.48V23.2h.62a.49.49,0,0,0,.48-.48V21.05a.48.48,0,0,0-.48-.48H10.2v-.74a.48.48,0,0,0-.48-.48.49.49,0,0,0-.48.48v.74H8.62a.48.48,0,0,0-.48.48v1.67a.49.49,0,0,0,.48.48h.62v.74A.49.49,0,0,0,9.72,24.42ZM9.1,21.53h1.24v.71H9.1Zm5.23,2.89a.49.49,0,0,0,.48-.48v-.36h.61a.47.47,0,0,0,.48-.48V17.59a.48.48,0,0,0-.48-.48h-.61v-.73a.48.48,0,0,0-.48-.48.47.47,0,0,0-.48.48v.73h-.62a.48.48,0,0,0-.48.48V23.1a.47.47,0,0,0,.48.48h.62v.36A.48.48,0,0,0,14.33,24.42Zm-.62-6.35h1.23v4.55H13.71Zm5.22,3.66a.48.48,0,0,0,.48-.48v-3H20a.48.48,0,0,0,.48-.48V16.06a.48.48,0,0,0-.48-.48h-.62v-3a.48.48,0,0,0-.48-.48.49.49,0,0,0-.48.48v3h-.62a.48.48,0,0,0-.48.48v1.67a.48.48,0,0,0,.48.48h.62v3A.49.49,0,0,0,18.93,21.73Zm-.62-5.19h1.24v.71H18.31Zm5.23,5.57a.48.48,0,0,0,.48-.48V20.9h.61a.48.48,0,0,0,.48-.48V17.21a.48.48,0,0,0-.48-.48H24V14.08a.48.48,0,0,0-.48-.48.47.47,0,0,0-.48.48v2.65h-.62a.48.48,0,0,0-.48.48v3.21a.48.48,0,0,0,.48.48h.62v.73A.47.47,0,0,0,23.54,22.11Zm-.62-4.42h1.23v2.25H22.92Zm5.7-7.45a.47.47,0,0,0-.48-.48.48.48,0,0,0-.48.48V11H27a.49.49,0,0,0-.48.48v6.66a.48.48,0,0,0,.48.48h.62v2.28a.49.49,0,0,0,.48.48.48.48,0,0,0,.48-.48V18.59h.62a.48.48,0,0,0,.48-.48V11.45a.49.49,0,0,0-.48-.48h-.62Zm.14,7.39H27.52v-5.7h1.24Zm3.07,9.25a.48.48,0,0,1-.48.48H.65a.48.48,0,0,1-.48-.48V5.12a.48.48,0,0,1,.48-.48.47.47,0,0,1,.48.48V26.4H31.35A.49.49,0,0,1,31.83,26.88ZM3.19,10.53a.48.48,0,1,1,.73-.62l5.85,6.93,8.84-8.1a.47.47,0,0,1,.53-.08l4.3,2.15L27.8,6.45a.48.48,0,0,1,.68.68l-4.61,4.6a.46.46,0,0,1-.55.09L19,9.67l-9,8.22a.5.5,0,0,1-.33.12h0a.47.47,0,0,1-.34-.17Z"/></svg>