<svg id="レイヤー_1" data-name="レイヤー 1" xmlns="http://www.w3.org/2000/svg" viewBox="0 0 32 32"><title>049_report</title><path d="M19.63,31.3h-.06L4.32,27.9a.29.29,0,0,1-.23-.3V4.39a.32.32,0,0,1,.23-.3L19.57.71a.28.28,0,0,1,.25.06.26.26,0,0,1,.11.23V31a.27.27,0,0,1-.11.23A.23.23,0,0,1,19.63,31.3ZM4.69,27.36,19.33,30.6V1.39L4.69,4.63Zm19.8,0h-2.8a.31.31,0,0,1-.31-.31.32.32,0,0,1,.31-.31h2.49V6.93a.31.31,0,0,1,.62,0V27A.31.31,0,0,1,24.49,27.33Zm0-19.48a.31.31,0,0,1-.31-.31V5.26H21.69a.31.31,0,1,1,0-.61h2.8A.31.31,0,0,1,24.8,5V7.54A.31.31,0,0,1,24.49,7.85ZM27.6,24.76H26.54a.31.31,0,0,1,0-.62h.76v-15a.31.31,0,1,1,.61,0V24.45A.32.32,0,0,1,27.6,24.76Zm0-1a.31.31,0,0,1-.31-.31v-15h-.76a.31.31,0,0,1,0-.62H27.6a.32.32,0,0,1,.31.31V23.49A.32.32,0,0,1,27.6,23.8ZM7,10a.31.31,0,0,1-.3-.24.3.3,0,0,1,.23-.36l9.73-1.92a.3.3,0,0,1,.35.25.29.29,0,0,1-.23.35L7.05,10Zm0,4.21a.3.3,0,0,1-.3-.29A.3.3,0,0,1,7,13.64l9.72-.59a.3.3,0,0,1,.32.28.31.31,0,0,1-.28.32L7,14.24Z"/></svg>