<svg id="レイヤー_1" data-name="レイヤー 1" xmlns="http://www.w3.org/2000/svg" viewBox="0 0 32 32"><title>050_analysis</title><path d="M8.65,18.09a1.72,1.72,0,0,0,1.72-1.72,1.67,1.67,0,0,0-.47-1.16l.09,0a.2.2,0,0,0,.15-.06l2.31-2.28a.2.2,0,0,0,.06-.13,1.69,1.69,0,0,0,1,.36,1.71,1.71,0,0,0,1.14-.45.22.22,0,0,0,.05.11L17,14.88a1.7,1.7,0,0,0-.31,1,1.72,1.72,0,0,0,3.43,0,1.66,1.66,0,0,0-.38-1.06L24.24,8.5l.38,2.9a.22.22,0,0,0,.22.2h0a.22.22,0,0,0,.19-.25l-.44-3.43a.17.17,0,0,0,0-.14l-.05,0h0a.19.19,0,0,0-.15,0h0L20.8,8.4a.23.23,0,0,0-.18.26.22.22,0,0,0,.26.18l3-.61-4.45,6.24a1.65,1.65,0,0,0-1-.34,1.73,1.73,0,0,0-1.11.42L15,12.46a.21.21,0,0,0-.11,0,1.68,1.68,0,0,0,.34-1,1.72,1.72,0,0,0-3.43,0,1.76,1.76,0,0,0,.43,1.13.18.18,0,0,0-.13.05l-2.3,2.28a.2.2,0,0,0,0,.24,1.67,1.67,0,0,0-1.15-.45,1.72,1.72,0,0,0,0,3.43Zm9.78-3.51a1.27,1.27,0,1,1-1.27,1.27A1.28,1.28,0,0,1,18.43,14.58Zm-4.89-4.44a1.27,1.27,0,1,1-1.26,1.27A1.27,1.27,0,0,1,13.54,10.14Zm-4.89,5a1.27,1.27,0,1,1-1.27,1.26A1.27,1.27,0,0,1,8.65,15.11ZM31.08,2.93H16.22V.9A.22.22,0,0,0,16,.68a.22.22,0,0,0-.22.22v2H.92a.22.22,0,0,0-.22.22.22.22,0,0,0,.22.23H2.83V21.66a.22.22,0,0,0,.22.22H15.78v3.78L7.49,30.9a.23.23,0,0,0-.07.31.24.24,0,0,0,.19.11.25.25,0,0,0,.11,0l8.06-5.09V29.7a.22.22,0,0,0,.22.22.22.22,0,0,0,.22-.22V26.19l8.06,5.09a.15.15,0,0,0,.11,0,.21.21,0,0,0,.19-.11.23.23,0,0,0-.07-.31l-8.29-5.24V21.88H28.94a.22.22,0,0,0,.22-.22V3.38h1.92a.22.22,0,0,0,.22-.23A.22.22,0,0,0,31.08,2.93ZM28.72,21.44H3.29v-18H28.72Z"/></svg>