<svg id="レイヤー_1" data-name="レイヤー 1" xmlns="http://www.w3.org/2000/svg" viewBox="0 0 32 32"><title>048_globe</title><path d="M18.55,12.18c.92.78.43,1.56,0,2.15a5.36,5.36,0,0,0-1.1,2.48c-.07.42-.19.58-.33.61H17c-.22-.05-.45-.39-.56-.55a2.16,2.16,0,0,1-.41-1.8c.09-1.24-.79-.51-1.09-2.12s.43-1.88,1.61-1.88S17.62,11.41,18.55,12.18Zm3.77-.06a.52.52,0,0,0,0,.84c.26.23.78.52.94,0S22.64,11.93,22.32,12.12ZM19.84,5s-.21.21,0,1,.59.95,1.68.51c.46-.19.82-.09.77.37-.11,1-.9.95-.31,2.56.36,1,1.23,1.34,1.57,2.09a1.91,1.91,0,0,0,.8.72A7.19,7.19,0,0,0,19.9,3.49a1.47,1.47,0,0,1-.44.5A.55.55,0,0,0,19.84,5ZM11.18,9.37s.41.94,2.88,2.09c0,0,.47,0-.08-.51s-1.15-1.21-.47-1.56.88-.32,1,.32.72.27.77-.35S16.4,8.1,17.08,7.8s1.32-.4,1.24-.91S18,6,17,6s-.6,1.4-1.48.56.19-.62.63-.8.88-1,.11-1-.6.32-1.21.1-.88.76-1.26.62a4.26,4.26,0,0,1-1-.69A7.11,7.11,0,0,0,10.53,8.3,3.2,3.2,0,0,0,11.18,9.37Zm15.25,8.85a.28.28,0,0,0-.19.08l-.07.06A11.92,11.92,0,0,1,5.5,10.24,11.8,11.8,0,0,1,9,1.8l0-.06.37-.27a.29.29,0,0,0,.13-.22A.29.29,0,0,0,9.17,1a.27.27,0,0,0-.2.09l-.36.38,0,0a12.39,12.39,0,0,0-3.67,8.84A12.52,12.52,0,0,0,16.74,22.73l.41,0v8.07H12.4a.29.29,0,0,0,0,.57H22.47a.29.29,0,1,0,0-.58H17.73V22.74l.41,0A12.43,12.43,0,0,0,26.31,19l0,0,.33-.3a.3.3,0,0,0,.1-.21A.29.29,0,0,0,26.43,18.22Zm-18.63-8a9.64,9.64,0,1,1,9.64,9.63A9.65,9.65,0,0,1,7.8,10.25Zm.58,0a9.06,9.06,0,1,0,9.06-9.07A9.07,9.07,0,0,0,8.38,10.25Z"/></svg>