<svg id="レイヤー_1" data-name="レイヤー 1" xmlns="http://www.w3.org/2000/svg" viewBox="0 0 32 32"><title>047_environment</title><path d="M13.15,31.29A12.43,12.43,0,1,1,25.57,18.87,12.44,12.44,0,0,1,13.15,31.29Zm.29-.55L14,30.6c1.58-.4,3-2,4-4.36l.16-.41-.41-.16a12.72,12.72,0,0,0-3.83-.77l-.45,0v5.86Zm-1-5.84a12.9,12.9,0,0,0-3.82.77l-.42.16.17.41c1,2.41,2.4,4,4,4.36l.53.14V24.87ZM7.27,26.27a8.92,8.92,0,0,0-1.61,1.1l-.39.33.39.32A12,12,0,0,0,9,30l1.51.55-1-1.23a10.8,10.8,0,0,1-1.65-2.81l-.19-.43Zm11.16.22a11.19,11.19,0,0,1-1.65,2.8l-1,1.24L17.26,30A11.91,11.91,0,0,0,20.64,28l.4-.32-.39-.34A8.73,8.73,0,0,0,19,26.28l-.42-.22Zm1.41-6.92a21.24,21.24,0,0,1-.92,5.61l-.11.34.32.17a9.73,9.73,0,0,1,2,1.36l.3.27.29-.3A11.8,11.8,0,0,0,25,19.6l0-.45H19.85Zm-18.51,0A11.85,11.85,0,0,0,4.58,27l.29.3.31-.27a9.54,9.54,0,0,1,2-1.36l.32-.17-.1-.34a20.52,20.52,0,0,1-.93-5.61v-.41H1.3Zm12.11,4.7.41,0a12.84,12.84,0,0,1,4,.82l.43.16.14-.44a21,21,0,0,0,.82-5.27v-.44H13.44ZM7,19.6a20.18,20.18,0,0,0,.82,5.27l.13.44.43-.16a12.91,12.91,0,0,1,4-.82l.4,0V19.16H7Zm14.08-8.92a9.46,9.46,0,0,1-2,1.36l-.32.16.11.35a20.83,20.83,0,0,1,.92,5.6l0,.42H25l0-.46a11.78,11.78,0,0,0-3.26-7.42l-.28-.3ZM17.88,12.6a13.19,13.19,0,0,1-4,.81l-.41,0v5.15h5.84v-.44a20.9,20.9,0,0,0-.82-5.26l-.14-.45Zm-10,.28A20,20,0,0,0,7,18.14l0,.44h5.84V13.43l-.4,0a13.19,13.19,0,0,1-4-.81L8,12.43ZM4.58,10.7a11.89,11.89,0,0,0-3.25,7.42l0,.46H6.44v-.41a20.91,20.91,0,0,1,.93-5.61l.1-.34-.32-.17a9.4,9.4,0,0,1-2-1.36l-.31-.27Zm8.86,2.16.45,0a13,13,0,0,0,3.83-.77l.41-.16L18,11.5c-1-2.41-2.4-4-4-4.36L13.44,7v5.86ZM12.33,7.13c-1.59.4-3,2-4,4.37l-.16.4.41.16a12.72,12.72,0,0,0,3.83.77l.45,0V7Zm4.44,1.31a10.63,10.63,0,0,1,1.65,2.81l.19.43.41-.22a9.17,9.17,0,0,0,1.62-1.09L21,10l-.4-.32a12,12,0,0,0-3.37-1.94l-1.51-.56ZM9,7.77A11.91,11.91,0,0,0,5.66,9.71l-.4.32.39.34a8.57,8.57,0,0,0,1.61,1.09l.42.22.18-.43A10.91,10.91,0,0,1,9.51,8.44l1-1.24Zm18.45,14.3c.08-.34.14-.7.2-1.05a11.8,11.8,0,0,0,3-7.12l0-.46h-3.9l-.24-.58h4.14l0-.46A11.8,11.8,0,0,0,27.42,5l-.28-.3L26.83,5a9.66,9.66,0,0,1-2,1.36l-.33.16.11.35a20.27,20.27,0,0,1,.82,4c-.23-.34-.45-.66-.7-1a20.72,20.72,0,0,0-.59-2.67L24,6.7l-.42.16a11.4,11.4,0,0,1-1.38.42,7,7,0,0,0-.59-.44,12,12,0,0,0,1.79-.51l.42-.16-.17-.41c-1-2.41-2.4-4-4-4.36l-.53-.14V5.43l-.58-.25V1.26L18,1.4A5.55,5.55,0,0,0,14.8,4.24l-.57,0a9.54,9.54,0,0,1,1-1.48l1-1.23L14.75,2a11.58,11.58,0,0,0-3.38,2L11,4.3h0c-.35.05-.7.11-1.05.19a12.42,12.42,0,0,1,21.35,8.63A12.25,12.25,0,0,1,27.49,22.07Zm-5-19.34a11,11,0,0,1,1.65,2.8l.18.44.42-.22a8.89,8.89,0,0,0,1.61-1.09l.39-.34L26.34,4A11.91,11.91,0,0,0,23,2.06L21.45,1.5Z"/></svg>