<?xml version="1.0" standalone="no"?>
<!DOCTYPE svg PUBLIC "-//W3C//DTD SVG 1.1//EN" "http://www.w3.org/Graphics/SVG/1.1/DTD/svg11.dtd" >
<svg xmlns="http://www.w3.org/2000/svg">
<defs>
  <font id="anagroup-icons" horiz-adv-x="500">
    <font-face font-family="anagroup-icons"
      units-per-em="500" ascent="500"
      descent="0" />
    <missing-glyph horiz-adv-x="0" />
    <glyph glyph-name="airplane"
      unicode="&#xEA01;"
      horiz-adv-x="500" d="M371.7460317460318 5.0793650793651L368.7301587301588 5.0793650793651C355.7142857142857 7.6190476190476 347.4603174603175 24.2857142857143 336.984126984127 47.7777777777778C335.5555555555556 51.1111111111111 334.2857142857143 54.1269841269841 333.015873015873 56.6666666666667L328.8888888888889 65.7142857142857C306.984126984127 111.9047619047619 286.3492063492064 155.8730158730159 263.4920634920635 200.3174603174603A954.1269841269842 954.1269841269842 0 0 1 192.0634920634921 132.5396825396825L176.1904761904762 116.6666666666667L180.1587301587301 77.7777777777778A38.41269841269841 38.41269841269841 0 0 0 171.1111111111111 47.4603174603175L163.4920634920635 39.6825396825396A26.50793650793651 26.50793650793651 0 0 0 140.6349206349207 28.8888888888889A26.50793650793651 26.50793650793651 0 0 0 124.7619047619048 46.984126984127L101.5873015873016 101.5873015873016L47.6190476190476 123.8095238095238C40.1587301587302 126.984126984127 31.7460317460318 131.5873015873016 29.6825396825397 140.6349206349206A26.666666666666668 26.666666666666668 0 0 0 40.3174603174603 163.4920634920635L47.6190476190476 171.1111111111112A40.317460317460316 40.317460317460316 0 0 0 72.6984126984127 179.8412698412699H74.7619047619048A9.841269841269842 9.841269841269842 0 0 0 77.7777777777778 179.8412698412699L116.6666666666667 175.8730158730159C132.5396825396826 191.7460317460318 146.8253968253968 207.6190476190477 161.1111111111111 223.4920634920635S186.1904761904762 250.7936507936508 199.6825396825397 264.6031746031747C155.7142857142857 287.3015873015874 112.0634920634921 307.7777777777779 66.3492063492063 329.3650793650794L56.984126984127 333.6507936507937L47.6190476190476 337.3015873015873C24.6031746031746 347.4603174603175 7.7777777777778 355.7142857142857 5.3968253968254 368.7301587301588A16.984126984126984 16.984126984126984 0 0 0 10.6349206349206 384.6031746031746L30.1587301587302 403.8095238095238A48.41269841269841 48.41269841269841 0 0 0 69.6825396825397 411.7460317460318L301.5873015873016 360.7936507936508L418.8888888888889 478.0952380952381A63.492063492063494 63.492063492063494 0 0 0 434.7619047619048 489.3650793650793A58.57142857142858 58.57142857142858 0 0 0 451.4285714285714 494.6031746031746A45.23809523809524 45.23809523809524 0 0 0 468.888888888889 493.1746031746032A37.142857142857146 37.142857142857146 0 0 0 484.7619047619048 484.1269841269841A35.55555555555556 35.55555555555556 0 0 0 493.8095238095239 468.2539682539683A40.317460317460316 40.317460317460316 0 0 0 495.2380952380953 450.7936507936508A49.523809523809526 49.523809523809526 0 0 0 490.0000000000001 433.4920634920635A55.87301587301588 55.87301587301588 0 0 0 478.888888888889 417.6190476190476L361.4285714285715 300.1587301587301L411.7460317460318 69.8412698412698A43.01587301587302 43.01587301587302 0 0 0 403.8095238095239 30.1587301587301L384.2857142857144 10.6349206349206A17.460317460317462 17.460317460317462 0 0 0 371.7460317460318 5.0793650793651zM266.984126984127 226.0317460317461H269.8412698412699A9.841269841269842 9.841269841269842 0 0 0 276.5079365079366 220.952380952381C302.0634920634921 172.2222222222222 324.1269841269842 124.920634920635 347.936507936508 74.6031746031746L352.0634920634921 65.7142857142858C353.4920634920636 63.0158730158731 354.7619047619049 59.6825396825398 356.3492063492064 56.1904761904762A137.30158730158732 137.30158730158732 0 0 1 372.2222222222223 26.1904761904762L390.4761904761905 44.4444444444445A24.603174603174608 24.603174603174608 0 0 1 393.0158730158731 65.7142857142857L340.1587301587302 302.2222222222222A9.523809523809524 9.523809523809524 0 0 0 342.8571428571429 311.2698412698413L464.1269841269842 432.6984126984127A36.507936507936506 36.507936507936506 0 0 1 471.5873015873016 443.015873015873A34.44444444444444 34.44444444444444 0 0 1 474.9206349206349 453.6507936507936A22.53968253968254 22.53968253968254 0 0 1 474.1269841269842 463.015873015873A15.873015873015873 15.873015873015873 0 0 1 470 470A14.92063492063492 14.92063492063492 0 0 1 463.1746031746032 474.1269841269841A22.857142857142854 22.857142857142854 0 0 1 453.8095238095238 474.1269841269841A30.000000000000004 30.000000000000004 0 0 1 443.015873015873 470.952380952381A42.6984126984127 42.6984126984127 0 0 1 432.6984126984127 463.4920634920635L311.4285714285715 342.8571428571429A9.682539682539684 9.682539682539684 0 0 0 302.3809523809524 340.1587301587301L126.984126984127 378.7301587301588H126.984126984127L65.0793650793651 392.3809523809524A34.920634920634924 34.920634920634924 0 0 1 43.8095238095238 389.8412698412699L25.8730158730159 371.4285714285715A153.8095238095238 153.8095238095238 0 0 1 56.031746031746 355.5555555555556L65.5555555555556 351.4285714285715L74.7619047619048 346.984126984127C124.9206349206349 323.4920634920635 172.3809523809524 301.1111111111111 220.7936507936508 275.7142857142857A9.682539682539684 9.682539682539684 0 0 0 226.0317460317461 268.4126984126985A10.317460317460318 10.317460317460318 0 0 0 223.3333333333334 259.8412698412699C206.5079365079365 243.968253968254 191.5873015873016 226.1904761904762 175.7142857142857 209.6825396825397S143.968253968254 175.8730158730159 128.0952380952381 158.8888888888889A9.206349206349206 9.206349206349206 0 0 0 120.1587301587302 156.031746031746L76.984126984127 160.3174603174603L74.6031746031746 160.3174603174603A30.31746031746032 30.31746031746032 0 0 1 61.5873015873016 157.3015873015873L53.968253968254 149.6825396825397A43.65079365079365 43.65079365079365 0 0 1 49.6825396825397 145.0793650793651L54.7619047619048 142.5396825396825L113.015873015873 119.047619047619A10.000000000000002 10.000000000000002 0 0 0 118.4126984126984 113.6507936507936L142.8571428571429 54.7619047619048A26.03174603174603 26.03174603174603 0 0 1 145.2380952380953 49.6825396825396L150 53.8095238095238L157.6190476190477 61.5873015873016A18.730158730158728 18.730158730158728 0 0 1 160.952380952381 75.7142857142857L156.031746031746 119.047619047619A10.317460317460318 10.317460317460318 0 0 0 158.8888888888889 127.1428571428572C165.3968253968254 133.6507936507937 171.7460317460318 140.1587301587302 178.2539682539683 146.5079365079365A882.2222222222222 882.2222222222222 0 0 0 260.7936507936508 223.6507936507936A9.682539682539684 9.682539682539684 0 0 0 266.984126984127 226.031746031746z" />
    <glyph glyph-name="search"
      unicode="&#xEA02;"
      horiz-adv-x="500" d="M69.375 264.375V269.53125A167.96874999999997 167.96874999999997 0 0 0 237.03125 437.5H242.34375V414.6875H237.03125A145.3125 145.3125 0 0 1 91.875 269.53125V264.375zM473.4375 3.90625L337.5 139.84375A202.1875 202.1875 0 1 0 354.21875 155.46875L489.5312500000001 20.15625zM33.125 295.46875A177.96875 177.96875 0 1 1 211.09375 473.4375A178.12500000000003 178.12500000000003 0 0 1 33.125 295.46875z" />
    <glyph glyph-name="blank"
      unicode="&#xEA03;"
      horiz-adv-x="500" d="M329.6875 210.15625H369.5312500000001V10.9375H10.9375V370.3125H210.15625V329.6875H50.78125V50.78125H329.6875zM409.375 489.0625H250V409.375H352.96875L167.5 223.90625L223.90625 167.5L409.375 352.96875V250H489.0624999999999V489.0625z" />
    <glyph glyph-name="caution"
      unicode="&#xEA04;"
      horiz-adv-x="500" d="M270.46875 456.25L495 67.34375A23.4375 23.4375 0 0 0 486.40625 35.15625A22.65625 22.65625 0 0 0 474.5312499999999 31.875H25.46875A23.59375 23.59375 0 0 0 1.875 55.46875A24.062500000000004 24.062500000000004 0 0 0 5 67.3437500000001L229.53125 456.25A23.750000000000004 23.750000000000004 0 0 0 261.875 464.84375A25.156250000000004 25.156250000000004 0 0 0 270.46875 456.25zM226.40625 149.84375V102.96875H273.2812500000001V149.84375zM226.40625 314.84375V196.875H273.2812500000001V314.84375z" />
    <glyph glyph-name="caution_o"
      unicode="&#xEA05;"
      horiz-adv-x="500" d="M270.3125 455.46875L493.90625 68.125A23.59375 23.59375 0 0 0 485.3125 35.9375A23.125000000000004 23.125000000000004 0 0 0 473.59375 32.8125H26.40625A23.59375 23.59375 0 0 0 2.8125 56.25A21.718749999999996 21.718749999999996 0 0 0 6.09375 67.96875L229.6875 455.46875A23.4375 23.4375 0 0 0 261.71875 464.0625A22.65625 22.65625 0 0 0 270.3125 455.46875zM67.1875 80.46875H432.96875L250 396.71875zM226.7187500000001 150.78125H273.59375V103.90625H226.7187500000001zM226.7187500000001 315.15625H273.59375V185.625H226.7187500000001z" />
    <glyph glyph-name="plus"
      unicode="&#xEA06;"
      horiz-adv-x="500" d="M499.53125 284.6875L284.6875 284.6875L284.6875 499.53125L215.3125 499.53125L215.3125 284.6875L0.46875 284.6875L0.46875 215.3125L215.3125 215.3125L215.3125 0.46875L284.6875 0.46875L284.6875 215.3125L499.53125 215.3125L499.53125 284.6875z" />
    <glyph glyph-name="minus"
      unicode="&#xEA07;"
      horiz-adv-x="500" d="M0.46875 284.6875H499.375V215.3125H0.46875V284.6875z" />
    <glyph glyph-name="close"
      unicode="&#xEA08;"
      horiz-adv-x="500" d="M495.46875 446.09375L446.09375 495.46875L250 299.53125L53.90625 495.46875L4.53125 446.09375L200.46875 250L4.53125 53.90625L53.90625 4.53125L250 200.46875L446.09375 4.53125L495.46875 53.90625L299.53125 250z" />
    <glyph glyph-name="arr1_t"
      unicode="&#xEA09;"
      horiz-adv-x="500" d="M275.3125 29.375V409.53125L395.15625 289.6875A25.156250000000004 25.156250000000004 0 0 1 430.9375 289.6875A25.3125 25.3125 0 0 1 430.9375 325.46875L267.96875 488.4375A25.624999999999996 25.624999999999996 0 0 1 232.03125 488.4375L69.0625 325.46875A25.3125 25.3125 0 0 1 62.5 307.5A24.687500000000004 24.687500000000004 0 0 1 69.84375 289.6875A25.156250000000004 25.156250000000004 0 0 1 105.625 289.6875L224.6875 409.375V29.375A25.3125 25.3125 0 1 1 275.3125 29.375z" />
    <glyph glyph-name="arr1_r"
      unicode="&#xEA0A;"
      horiz-adv-x="500" d="M29.375 224.6875H409.53125L289.6875 104.84375A25.156250000000004 25.156250000000004 0 0 1 289.6875 69.0625A25.3125 25.3125 0 0 1 325.46875 69.0625L488.4375 232.03125A25.624999999999996 25.624999999999996 0 0 1 488.4375 267.96875L325.46875 430.9375A25.3125 25.3125 0 0 1 307.5 437.5A24.687500000000004 24.687500000000004 0 0 1 289.6875 430.15625A25.156250000000004 25.156250000000004 0 0 1 289.6875 394.375L409.375 274.53125H29.375A25.3125 25.3125 0 0 1 29.375 223.90625z" />
    <glyph glyph-name="arr1_b"
      unicode="&#xEA0B;"
      horiz-adv-x="500" d="M224.6875 470.625V90.46875L104.84375 210.3125A25.156250000000004 25.156250000000004 0 0 1 69.0625 210.3125A25.3125 25.3125 0 0 1 69.0625 174.53125L232.03125 11.5625A25.624999999999996 25.624999999999996 0 0 1 267.96875 11.5625L430.9375 174.53125A25.3125 25.3125 0 0 1 438.28125 192.5A24.687500000000004 24.687500000000004 0 0 1 430.9375 210.3125A25.156250000000004 25.156250000000004 0 0 1 395.15625 210.3125L275.3125 90.625V470.625A25.3125 25.3125 0 0 1 224.6875 470.625z" />
    <glyph glyph-name="arr1_l"
      unicode="&#xEA0C;"
      horiz-adv-x="500" d="M470.625 275.3125H90.46875L210.3125 395.15625A25.156250000000004 25.156250000000004 0 0 1 210.3125 430.9375A25.3125 25.3125 0 0 1 174.53125 430.9375L11.5625 267.96875A25.624999999999996 25.624999999999996 0 0 1 11.5625 232.03125L174.53125 69.0625A25.3125 25.3125 0 0 1 192.5 61.7187500000001A24.687500000000004 24.687500000000004 0 0 1 210.3125 69.0625A25.156250000000004 25.156250000000004 0 0 1 210.3125 104.84375L90.625 224.6875H470.625A25.3125 25.3125 0 0 1 470.625 275.3125z" />
    <glyph glyph-name="arr2_t"
      unicode="&#xEA0D;"
      horiz-adv-x="500" d="M3.90625 250A246.09375 246.09375 0 1 1 250 496.09375A246.09375 246.09375 0 0 1 3.90625 250zM270.625 340.46875L371.5625 239.53125A29.062500000000007 29.062500000000007 0 0 0 380 218.75A29.687500000000004 29.687500000000004 0 0 0 371.5625 198.125A29.21875 29.21875 0 0 0 330.3125 198.125L250 278.75L169.6875 198.4375A29.062500000000007 29.062500000000007 0 0 0 128.4375 239.53125L229.375 340.46875A29.062500000000007 29.062500000000007 0 0 0 270.625 340.46875z" />
    <glyph glyph-name="arr2_r"
      unicode="&#xEA0E;"
      horiz-adv-x="500" d="M250 496.09375A246.09375 246.09375 0 1 1 496.09375 250A246.09375 246.09375 0 0 1 250 496.09375zM340.46875 229.375L239.53125 128.4375A29.062500000000007 29.062500000000007 0 0 0 218.90625 120A29.687500000000004 29.687500000000004 0 0 0 198.28125 128.4375A29.21875 29.21875 0 0 0 198.28125 169.6875L278.75 250L198.4375 330.3125A29.062500000000007 29.062500000000007 0 0 0 239.53125 371.5625L340.46875 270.625A29.062500000000007 29.062500000000007 0 0 0 340.46875 229.375z" />
    <glyph glyph-name="arr2_b"
      unicode="&#xEA0F;"
      horiz-adv-x="500" d="M496.09375 250A246.09375 246.09375 0 1 1 250 3.90625A246.09375 246.09375 0 0 1 496.09375 250zM229.375 159.53125L128.4375 260.46875A29.062500000000007 29.062500000000007 0 0 0 120 281.25A29.687500000000004 29.687500000000004 0 0 0 128.4375 301.875A29.21875 29.21875 0 0 0 169.6875 301.875L250 221.25L330.3125 301.5625A29.062500000000007 29.062500000000007 0 0 0 371.5625 260.46875L270.625 159.53125A29.062500000000007 29.062500000000007 0 0 0 229.375 159.53125z" />
    <glyph glyph-name="arr2_l"
      unicode="&#xEA10;"
      horiz-adv-x="500" d="M250 3.90625A246.09375 246.09375 0 1 1 3.90625 250A246.09375 246.09375 0 0 1 250 3.90625zM159.53125 270.625L260.46875 371.5625A29.062500000000007 29.062500000000007 0 0 0 281.25 380A29.687500000000004 29.687500000000004 0 0 0 301.875 371.5625A29.21875 29.21875 0 0 0 301.875 330.3125L221.25 250L301.5625 169.6875A29.062500000000007 29.062500000000007 0 0 0 260.46875 128.4375L159.53125 229.375A29.062500000000007 29.062500000000007 0 0 0 159.53125 270.625z" />
    <glyph glyph-name="arr3_t"
      unicode="&#xEA11;"
      horiz-adv-x="500" d="M496.71875 132.1875A11.25 11.25 0 0 0 477.5 124.21875L250 351.71875L22.5 124.21875A11.25 11.25 0 0 0 6.875 124.21875A11.562500000000002 11.562500000000002 0 0 0 6.875 139.84375L242.03125 375A11.562500000000002 11.562500000000002 0 0 0 257.6562500000001 375L493.4375 140.625A11.406249999999998 11.406249999999998 0 0 0 496.71875 132.1875z" />
    <glyph glyph-name="arr3_r"
      unicode="&#xEA12;"
      horiz-adv-x="500" d="M132.1875 3.28125A11.25 11.25 0 0 0 125 22.5L351.71875 250L125 477.5A11.25 11.25 0 0 0 125 493.125A11.562500000000002 11.562500000000002 0 0 0 140.625 493.125L375.78125 257.96875A11.562500000000002 11.562500000000002 0 0 0 375.78125 242.34375L140.625 6.5625A11.406249999999998 11.406249999999998 0 0 0 132.1875 3.28125z" />
    <glyph glyph-name="arr3_b"
      unicode="&#xEA13;"
      horiz-adv-x="500" d="M3.28125 367.8125A11.25 11.25 0 0 0 22.5 375L250 148.28125L477.5 375A11.25 11.25 0 0 0 493.125 375A11.562500000000002 11.562500000000002 0 0 0 493.125 359.375L257.96875 124.21875A11.562500000000002 11.562500000000002 0 0 0 242.3437500000001 124.21875L6.5625 359.375A11.406249999999998 11.406249999999998 0 0 0 3.28125 367.8125z" />
    <glyph glyph-name="arr3_l"
      unicode="&#xEA14;"
      horiz-adv-x="500" d="M367.8125 496.71875A11.25 11.25 0 0 0 375.78125 477.5L148.28125 250L375.78125 22.5A11.25 11.25 0 0 0 375.78125 6.875A11.562500000000002 11.562500000000002 0 0 0 360.15625 6.875L125 242.03125A11.562500000000002 11.562500000000002 0 0 0 125 257.65625L359.375 493.4375A11.406249999999998 11.406249999999998 0 0 0 367.8125 496.71875z" />
    <glyph glyph-name="arr4_t"
      unicode="&#xEA15;"
      horiz-adv-x="500" d="M496.71875 138.125L457.5 95.9375L250 319.53125L42.5 95.9375L3.28125 138.125L250 404.0625z" />
    <glyph glyph-name="arr4_r"
      unicode="&#xEA16;"
      horiz-adv-x="500" d="M138.125 3.28125L95.9375 42.5L319.53125 250L95.9375 457.5L138.125 496.71875L403.75 249.84375z" />
    <glyph glyph-name="arr4_b"
      unicode="&#xEA17;"
      horiz-adv-x="500" d="M3.28125 361.875L42.5 404.0625L250 180.46875L457.5 404.0625L496.71875 361.875L250 95.9375z" />
    <glyph glyph-name="arr4_l"
      unicode="&#xEA18;"
      horiz-adv-x="500" d="M361.875 496.71875L404.0625 457.5L180.46875 250L404.0625 42.5L361.875 3.28125L95.9375 250z" />
    <glyph glyph-name="arr5_t"
      unicode="&#xEA19;"
      horiz-adv-x="500" d="M495.9375 158.90625L428.4375 90.1562500000001L250 272.1875L71.5625 90.15625L4.0625 159.0625L250 409.84375z" />
    <glyph glyph-name="arr5_r"
      unicode="&#xEA1A;"
      horiz-adv-x="500" d="M158.90625 4.0625L90.15625 71.5625000000001L272.1875 250L90.15625 428.4375L159.0625 495.9375L409.84375 250z" />
    <glyph glyph-name="arr5_b"
      unicode="&#xEA1B;"
      horiz-adv-x="500" d="M4.0625 341.09375L71.5625 409.84375L250 227.8125L428.4375 409.84375L495.9375000000001 340.9375L250 90.15625z" />
    <glyph glyph-name="arr5_l"
      unicode="&#xEA1C;"
      horiz-adv-x="500" d="M341.09375 495.9375L409.84375 428.4375L227.8125 250L409.84375 71.5625L340.9375 4.0624999999999L90.15625 250z" />
    <glyph glyph-name="arr6_t"
      unicode="&#xEA1D;"
      horiz-adv-x="500" d="M2.5 250L46.875 206.40625L218.75 379.0625V2.4999999999999H281.25V379.0625L453.125 206.09375L497.5 250L250 497.5z" />
    <glyph glyph-name="arr6_r"
      unicode="&#xEA1E;"
      horiz-adv-x="500" d="M250 497.5L206.40625 453.125L379.0625 281.25H2.5V218.75H379.0625L206.09375 46.875L250 2.5L497.5 250z" />
    <glyph glyph-name="arr6_b"
      unicode="&#xEA1F;"
      horiz-adv-x="500" d="M497.5 250L453.90625 293.59375L281.25 120.9375V497.5H218.75V120.9375L46.875 293.90625L2.5 250L250 2.5z" />
    <glyph glyph-name="arr6_l"
      unicode="&#xEA20;"
      horiz-adv-x="500" d="M250 2.5L293.59375 46.09375L120.9375 218.75H497.5000000000001V281.25H120.9375L293.90625 453.125L250 497.5L2.5 250z" />
    <glyph glyph-name="facebook"
      unicode="&#xEA21;"
      horiz-adv-x="500" d="M288.4375 1.71875V228.28125H364.375L375.78125 316.40625H288.4375V372.8125C288.4375 398.4375 295.625 415.78125 332.1875 415.78125H379.0625V493.90625A609.375 609.375 0 0 1 310.78125 498.28125C243.4375000000001 498.28125 197.34375 457.03125 197.34375 381.5625V316.40625H121.09375V228.125H197.34375V1.71875z" />
    <glyph glyph-name="twitter"
      unicode="&#xEA22;"
      horiz-adv-x="500" d="M494.375 401.5625A203.125 203.125 0 0 0 436.71875 385.9375A100.93749999999999 100.93749999999999 0 0 1 480.9375 441.40625A204.37499999999997 204.37499999999997 0 0 0 417.1875 416.875A100.3125 100.3125 0 0 1 243.75 348.28125A109.375 109.375 0 0 1 246.25 325.46875A284.53125 284.53125 0 0 0 39.6875 430.15625A100.15625 100.15625 0 0 1 70.9375 296.40625A98.75000000000001 98.75000000000001 0 0 0 25.46875 308.90625V307.65625A100.3125 100.3125 0 0 1 105.78125 209.375A98.75000000000001 98.75000000000001 0 0 0 79.375 205.78125A93.75 93.75 0 0 0 60.46875 207.65625A100.15625 100.15625 0 0 1 154.21875 137.96875A200.93749999999997 200.93749999999997 0 0 0 29.21875 95A204.37499999999997 204.37499999999997 0 0 0 5.3125 96.4062499999999A284.21875 284.21875 0 0 1 159.0625 51.40625C343.4375000000001 51.40625 444.3750000000001 204.21875 444.3750000000001 336.71875C444.3750000000001 341.09375 444.3750000000001 345.3125 444.3750000000001 349.6875A203.125 203.125 0 0 1 494.3750000000001 401.5625z" />
    <glyph glyph-name="youtube"
      unicode="&#xEA23;"
      horiz-adv-x="500" d="M207.96875 78.125C114.21875 79.84375 82.96875 81.40625 63.28125 85.46875A63.75 63.75 0 0 0 30 102.65625A70.46875 70.46875 0 0 0 14.375 132.96875A206.5625 206.5625 0 0 0 7.65625 177.5000000000001A1085.15625 1085.15625 0 0 0 7.65625 321.8750000000001C10.46875 348.90625 12.03125 380.46875 31.25 399.0625A66.25 66.25 0 0 0 63.90625 414.6875A1813.4374999999998 1813.4374999999998 0 0 0 250 421.875A1815.78125 1815.78125 0 0 0 435.6250000000001 415.3125A64.0625 64.0625 0 0 0 473.9062500000001 392.65625C492.0312500000001 364.0625 492.34375 328.59375 494.2187500000001 300.78125C495.0000000000001 287.5 495.0000000000001 212.1875 494.2187500000001 199.0625000000001C491.25 155 489.0625000000001 139.5312500000001 482.5000000000001 123.4375000000001A55.46874999999999 55.46874999999999 0 0 0 468.75 102.03125A63.90625 63.90625 0 0 0 434.53125 84.53125C353.90625 78.4375 285.3125 77.1875 207.5 78.4375zM331.5625 254.6875C286.71875 278.75 243.59375 301.5625 199.6875 324.0625V186.0937500000001C246.5625 211.2500000000001 294.6875 234.3750000000001 331.71875 254.8437500000001z" />
    <glyph glyph-name="instagram"
      unicode="&#xEA24;"
      horiz-adv-x="500" d="M250 448.75C314.6875 448.75 322.34375 448.75 347.96875 447.34375A135.3125 135.3125 0 0 0 392.96875 438.90625A75.3125 75.3125 0 0 0 420.78125 420.78125A75.3125 75.3125 0 0 0 438.90625 392.96875A135.3125 135.3125 0 0 0 447.34375 347.96875C448.4375 322.34375 448.75 314.6875 448.75 250S448.75 177.65625 447.34375 152.03125A135.3125 135.3125 0 0 0 438.90625 107.03125A80.46875 80.46875 0 0 0 392.96875 61.09375A135.3125 135.3125 0 0 0 347.96875 52.65625C322.34375 51.5625 314.6875 51.25 250 51.25S177.65625 51.25 152.03125 52.65625A135.3125 135.3125 0 0 0 107.03125 61.09375A75.3125 75.3125 0 0 0 79.21875 79.21875A75.3125 75.3125 0 0 0 61.09375 107.03125A135.3125 135.3125 0 0 0 52.65625 152.03125C51.5625 177.65625 51.25 185.3125 51.25 250S51.25 322.34375 52.65625 347.96875A135.3125 135.3125 0 0 0 61.09375 392.96875A75.3125 75.3125 0 0 0 79.21875 420.78125A75.3125 75.3125 0 0 0 107.03125 438.90625A135.3125 135.3125 0 0 0 152.03125 447.34375C177.65625 448.4375 185.3125 448.75 250 448.75M250 492.34375C184.21875 492.34375 175.9375 492.34375 150.15625 490.9375A181.25 181.25 0 0 1 91.25 479.6875A123.90625 123.90625 0 0 1 20.3125 408.75A181.25 181.25 0 0 1 9.0625 349.84375C7.96875 324.0625 7.65625 315.78125 7.65625 250S7.65625 175.9375 9.0625 150.15625A181.25 181.25 0 0 1 20.3125 91.25A123.90625 123.90625 0 0 1 91.25 20.3125A181.25 181.25 0 0 1 150.15625 9.0625000000001C175.9375 7.96875 184.21875 7.6562500000001 250 7.6562500000001S324.0625000000001 7.6562500000001 349.84375 9.0625000000001A181.25 181.25 0 0 1 408.75 20.3125A123.90625 123.90625 0 0 1 479.6875 91.25A181.25 181.25 0 0 1 490.9374999999999 150.15625C492.03125 175.9375 492.3437499999999 184.21875 492.3437499999999 250S492.3437499999999 324.0625 490.9374999999999 349.84375A181.25 181.25 0 0 1 479.6875 408.75A123.90625 123.90625 0 0 1 408.75 479.6875A181.25 181.25 0 0 1 349.84375 490.9375C324.0625 492.03125 315.78125 492.34375 250 492.34375zM250 375A125 125 0 1 1 375 250A125 125 0 0 1 250 375zM250 169.84375A80.78124999999999 80.78124999999999 0 1 0 330.78125 250A80.625 80.625 0 0 0 250 169.21875zM350.3125 379.375A29.062500000000007 29.062500000000007 0 0 1 408.4375 379.375A29.062500000000007 29.062500000000007 0 0 1 350.3125 379.375" />
    <glyph glyph-name="line"
      unicode="&#xEA25;"
      horiz-adv-x="500" d="M415.46875 281.25A12.968749999999998 12.968749999999998 0 0 0 402.34375 268.28125H366.09375V245H402.34375A12.812499999999998 12.812499999999998 0 0 0 415.46875 232.1875A13.124999999999998 13.124999999999998 0 0 0 403.4375 218.90625H352.96875A12.968749999999998 12.968749999999998 0 0 0 340.15625 232.03125V330.46875A13.124999999999998 13.124999999999998 0 0 0 353.125 343.75H402.34375A13.124999999999998 13.124999999999998 0 0 0 415.46875 330.625A12.968749999999998 12.968749999999998 0 0 0 402.34375 317.65625H366.09375V294.375H402.34375A13.28125 13.28125 0 0 0 415.46875 281.25zM313.75 218.75A11.71875 11.71875 0 0 0 309.6875 218.75A12.343750000000002 12.343750000000002 0 0 0 299.0625 223.90625L248.4375 292.65625V231.875A13.28125 13.28125 0 0 0 234.375 219.84375A13.124999999999998 13.124999999999998 0 0 0 222.5 231.875V330.46875A12.65625 12.65625 0 0 0 235.3125 343.4375H235.3125A13.90625 13.90625 0 0 0 245.625 338.28125L296.875 269.375V330.46875A12.968749999999998 12.968749999999998 0 1 0 322.8125 330.46875H322.8125V231.875A12.812499999999998 12.812499999999998 0 0 0 313.90625 219.53125zM190.9375 218.75A13.124999999999998 13.124999999999998 0 0 0 177.96875 231.875V330.46875A12.968749999999998 12.968749999999998 0 0 0 203.90625 330.46875V231.875A13.124999999999998 13.124999999999998 0 0 0 190.78125 218.75zM152.96875 218.75H103.4375A13.28125 13.28125 0 0 0 90.46875 231.875V330.46875A13.124999999999998 13.124999999999998 0 0 0 116.5625 330.46875V244.8437500000001H152.8125A13.124999999999998 13.124999999999998 0 0 0 165.9375 231.8750000000001A13.28125 13.28125 0 0 0 152.8125 218.7500000000001H152.8125zM250 486.40625C113.125 486.40625 1.71875 395.9375 1.71875 284.84375C1.71875 185.3125 90 102.03125 209.375 86.0937499999999C217.5 84.375 228.4375 80.7812499999999 231.25 73.9062499999999A51.24999999999999 51.24999999999999 0 0 0 231.25 51.5624999999999L227.8125 30.4687499999999C226.875 24.3749999999999 222.8125 5.9374999999999 249.53125 17.1874999999999S392.65625 101.5624999999999 444.6875 161.40625A179.21875 179.21875 0 0 1 497.5 284.8437499999999C498.28125 395.9375 386.875 486.40625 250 486.40625z" />
    <glyph glyph-name="google"
      unicode="&#xEA26;"
      horiz-adv-x="500" d="M34.84375 360.46875A246.25 246.25 0 0 0 254.84375 496.09375A236.09374999999994 236.09374999999994 0 0 0 419.53125 432.03125L348.90625 361.40625A132.65625 132.65625 0 0 1 255.15625 398.28125A148.125 148.125 0 0 1 109.375 247.9687500000001A150 150 0 0 1 117.1875 203.125A148.28125 148.28125 0 0 1 304.6875 109.375A145 145 0 0 1 337.96875 125A112.5 112.5 0 0 1 387.1875 199.21875H254.84375V294.53125H486.71875A288.4375 288.4375 0 0 0 491.09375 244.0625000000001A239.6875 239.6875 0 0 0 417.8125 63.28125A235.3125 235.3125 0 0 0 254.84375 3.59375A246.09375 246.09375 0 0 0 8.75 250H8.75A245.9375 245.9375 0 0 0 34.84375 360.46875z" />
    <glyph glyph-name="yahoo"
      unicode="&#xEA27;"
      horiz-adv-x="500" d="M5.15625 360.625L7.03125 376.25S7.03125 377.1875 8.4375 377.5H193.4375C193.4375 373.90625 192.34375 370.625 191.71875 367.5A23.750000000000004 23.750000000000004 0 0 1 191.71875 364.21875C191.71875 361.5625 190 360.78125 187.8125 360.625C176.875 360.625 165.9375 359.21875 155.15625 358.28125L133.59375 356.25C159.375 318.125 188.28125 283.28125 215.15625 246.875C236.5625 265 257.96875 282.96875 279.21875 301.40625A147.96875 147.96875 0 0 1 292.65625 315.9375A29.21875 29.21875 0 0 1 296.09375 322.03125L275.15625 325.3125L247.96875 328.75A2.6562500000000004 2.6562500000000004 0 0 0 246.25 330.46875C245 335.78125 244.21875 341.09375 243.125 346.09375H403.4375L402.5 344.21875C399.3750000000001 339.53125 396.2500000000001 334.6875 392.9687500000001 330A4.6875 4.6875 0 0 0 390.3125 328.125C376.09375 325.15625 361.71875 322.34375 347.5000000000001 319.21875A29.374999999999996 29.374999999999996 0 0 1 339.0625000000001 314.6875A618.1250000000001 618.1250000000001 0 0 1 285.625 273.90625C271.8750000000001 262.1875 258.4375000000001 249.8437500000001 245.1562500000001 237.65625C242.0312500000001 234.375 239.0625 231.09375 236.2500000000001 227.5000000000001A14.218750000000002 14.218750000000002 0 0 1 232.65625 217.3437500000001V150.9375000000001L288.4375 147.1875000000001C288.4375 141.0937500000001 287.34375 135.3125000000001 286.71875 129.6875000000001C286.71875 127.9687500000001 285.3125 128.4375000000001 284.3750000000001 128.4375000000001L261.0937500000001 128.4375000000001C235.4687500000001 128.4375000000001 210.0000000000001 128.4375000000001 184.3750000000001 128.4375000000001C170.7812500000001 128.4375000000001 157.1875000000001 128.4375000000001 143.5937500000001 128.4375000000001L113.2812500000001 128.4375000000001H111.5625C112.34375 134.3750000000001 112.96875 140.1562500000001 113.75 146.4062500000001C119.53125 146.4062500000001 125 146.4062500000001 130.46875 146.4062500000001A82.8125 82.8125 0 0 1 156.25 152.1875A15.625 15.625 0 0 1 167.1875 167.8125C167.1875 185.15625 167.1875 202.65625 167.1875 220.15625A9.375 9.375 0 0 1 165.46875 226.25C158.90625 235.3125 152.5 244.6875 145.78125 253.4375C125 281.25 103.59375 307.03125 81.09375 332.03125C76.09375 337.65625 70.78125 342.65625 65.46875 347.65625A16.5625 16.5625 0 0 1 55 352.96875C42.5 354.53125 30.15625 356.25 17.65625 358.125zM376.09375 193.90625C392.5 247.5 408.90625 300.9375 425.3125 354.6875L495.3125 333.28125L492.03125 327.96875L434.6875 231.09375C425.78125 216.25 417.03125 201.25 408.28125 186.40625C407.34375 184.6875 406.5625 184.375 404.6875 185L378.125 193.125zM398.75 155.3125A7.65625 7.65625 0 0 1 398.75 153.5937500000001L384.6875 122.3437500000001L343.75 133.75C344.53125 135.78125 345.3125 137.65625 346.25 139.6875C350 148.59375 353.90625 157.34375 357.65625 166.25C357.65625 167.5 358.75 168.4375 360.3125000000001 167.65625A298.90625 298.90625 0 0 1 398.4375000000001 155.78125z" />
    <glyph glyph-name="star"
      unicode="&#xEA28;"
      horiz-adv-x="500" d="M189.53125 306.875L249.6875 481.875L310.46875 306.875L493.59375 306.875L347.96875 192.1875L404.53125 18.125L249.6875 121.25L95.46875 18.125L152.03125 192.1875L6.40625 306.875L189.53125 306.875z" />
    <glyph glyph-name="star_o"
      unicode="&#xEA29;"
      horiz-adv-x="500" d="M189.53125 310.46875L250 485.3125L310.78125 310.46875H493.4375L347.96875 195.6250000000001L404.53125 21.71875L250 125L95.78125 21.875L152.03125 195.625L6.5625 310.46875zM100.9375 278.125L189.84375 207.65625L155.15625 100.9375L250 164.375L345 100.9375L310.46875 207.65625L399.375 278.125H287.1875L250 385.46875L212.8125 278.125z" />
    <glyph glyph-name="arr_t"
      unicode="&#xEA2A;"
      horiz-adv-x="500" d="M250 492.96875L154.375 397.34375L235 397.34375L235 7.03125L265 7.03125L265 397.34375L345.625 397.34375L250 492.96875z" />
    <glyph glyph-name="arr_r"
      unicode="&#xEA2B;"
      horiz-adv-x="500" d="M492.96875 250L397.34375 345.625L397.34375 265L7.03125 265L7.03125 235L397.34375 235L397.34375 154.375L492.96875 250z" />
    <glyph glyph-name="arr_b"
      unicode="&#xEA2C;"
      horiz-adv-x="500" d="M250 7.03125L345.625 102.65625L265 102.65625L265 492.96875L235 492.96875L235 102.65625L154.375 102.65625L250 7.03125z" />
    <glyph glyph-name="arr_l"
      unicode="&#xEA2D;"
      horiz-adv-x="500" d="M7.03125 250L102.65625 154.375L102.65625 235L492.96875 235L492.96875 265L102.65625 265L102.65625 345.625L7.03125 250z" />
    <glyph glyph-name="cal"
      unicode="&#xEA2E;"
      horiz-adv-x="500" d="M424.0625 457.1875H354.6875V489.21875A9.218749999999998 9.218749999999998 0 1 1 336.40625 489.21875V457.1875H161.875V489.21875A9.218749999999998 9.218749999999998 0 1 1 143.59375 489.21875V457.1875H75.9375A53.90625 53.90625 0 0 1 22.1875 403.4375V55.3125A53.90625 53.90625 0 0 1 75.9375 1.5625H424.0625A53.90625 53.90625 0 0 1 477.8125000000001 55.3125000000001V403.4375A53.90625 53.90625 0 0 1 424.0625 457.1875zM75.9375 438.90625H143.59375V411.40625A9.218749999999998 9.218749999999998 0 1 1 161.875 411.40625V438.90625H336.40625V411.40625A9.218749999999998 9.218749999999998 0 1 1 354.6875000000001 411.40625V438.90625H424.0625000000001A35.46875 35.46875 0 0 0 459.5312500000001 403.4375V350.625H40.46875V403.4375A35.46875 35.46875 0 0 0 75.9375 438.90625zM424.0625 20H75.9375A35.46875 35.46875 0 0 0 40.46875 55.3125V332.34375H459.53125V55.3125A35.46875 35.46875 0 0 0 424.0625 20zM325.9375 264.6875A9.218749999999998 9.218749999999998 0 0 0 316.875 255.46875H270A9.218749999999998 9.218749999999998 0 0 0 270 273.90625H316.875A9.218749999999998 9.218749999999998 0 0 0 325.9375 264.6875zM412.1875 264.6875A9.218749999999998 9.218749999999998 0 0 0 403.125 255.46875H356.25A9.218749999999998 9.218749999999998 0 0 0 356.25 273.90625H403.125A9.218749999999998 9.218749999999998 0 0 0 412.1875 264.6875zM153.4375 203.125A9.0625 9.0625 0 0 0 144.375 193.90625H97.5A9.218749999999998 9.218749999999998 0 0 0 97.5 212.1875H144.375A9.0625 9.0625 0 0 0 153.4375 203.125zM239.6875 203.125A9.0625 9.0625 0 0 0 230.625 193.90625H183.75A9.218749999999998 9.218749999999998 0 0 0 183.75 212.1875H230.625A9.0625 9.0625 0 0 0 239.6875 203.125zM325.9375 203.125A9.0625 9.0625 0 0 0 316.875 193.90625H270A9.218749999999998 9.218749999999998 0 0 0 270 212.1875H316.875A9.0625 9.0625 0 0 0 325.9375 203.125zM412.1875 203.125A9.0625 9.0625 0 0 0 403.125 193.90625H356.25A9.218749999999998 9.218749999999998 0 0 0 356.25 212.1875H403.125A9.0625 9.0625 0 0 0 412.1875 203.125zM153.4375 140.625A9.0625 9.0625 0 0 0 144.375 131.40625H97.5A9.218749999999998 9.218749999999998 0 0 0 97.5 149.6875H144.375A9.0625 9.0625 0 0 0 153.4375 140.625zM239.6875 140.625A9.0625 9.0625 0 0 0 230.625 131.40625H183.75A9.218749999999998 9.218749999999998 0 0 0 183.75 149.6875H230.625A9.0625 9.0625 0 0 0 239.6875 140.625zM325.9375 140.625A9.0625 9.0625 0 0 0 316.875 131.40625H270A9.218749999999998 9.218749999999998 0 0 0 270 149.6875H316.875A9.0625 9.0625 0 0 0 325.9375 140.625zM412.1875 140.625A9.0625 9.0625 0 0 0 403.125 131.40625H356.25A9.218749999999998 9.218749999999998 0 0 0 356.25 149.6875H403.125A9.0625 9.0625 0 0 0 412.1875 140.625zM153.4375 79.53125A9.0625 9.0625 0 0 0 144.375 70.3125H97.5A9.218749999999998 9.218749999999998 0 0 0 97.5 88.59375H144.375A9.0625 9.0625 0 0 0 153.4375 79.53125zM239.6875 79.53125A9.0625 9.0625 0 0 0 230.625 70.3125H183.75A9.218749999999998 9.218749999999998 0 0 0 183.75 88.59375H230.625A9.0625 9.0625 0 0 0 239.6875 79.53125z" />
    <glyph glyph-name="chart"
      unicode="&#xEA2F;"
      horiz-adv-x="500" d="M80 106.5625A7.500000000000001 7.500000000000001 0 0 1 87.5 114.0625V125H97.03125A7.500000000000001 7.500000000000001 0 0 1 104.53125 132.5V237.03125A7.343749999999999 7.343749999999999 0 0 1 97.03125 244.5312500000001H87.5V256.09375A7.65625 7.65625 0 0 1 80 263.5937500000001A7.500000000000001 7.500000000000001 0 0 1 72.5 256.09375V244.5312500000001H62.5A7.343749999999999 7.343749999999999 0 0 1 55 237.03125V132.96875A7.500000000000001 7.500000000000001 0 0 1 62.5 125H72.1875V113.59375A7.343749999999999 7.343749999999999 0 0 1 80 106.5625zM70.3125 229.53125H89.53125V140.625H70.3125zM151.875 118.4375000000001A7.500000000000001 7.500000000000001 0 0 1 159.375 125.9375000000001V137.5H169.0625A7.65625 7.65625 0 0 1 176.5625 145V171.09375A7.500000000000001 7.500000000000001 0 0 1 169.0625 178.59375H159.375V190.15625A7.500000000000001 7.500000000000001 0 0 1 151.875 197.65625A7.65625 7.65625 0 0 1 144.375 190.15625V178.59375H134.6875A7.500000000000001 7.500000000000001 0 0 1 127.1875 171.09375V145A7.65625 7.65625 0 0 1 134.6875 137.5H144.375V125.9375000000001A7.65625 7.65625 0 0 1 151.875 118.4375zM142.1875 163.59375H161.5625V152.5H142.1875zM223.90625 118.4375A7.65625 7.65625 0 0 1 231.40625 125.9375V131.5625H240.9375A7.343749999999999 7.343749999999999 0 0 1 248.4375 139.0625V225.15625A7.500000000000001 7.500000000000001 0 0 1 240.9375 232.65625H231.40625V244.0625000000001A7.500000000000001 7.500000000000001 0 0 1 223.90625 251.5625000000001A7.343749999999999 7.343749999999999 0 0 1 216.40625 244.0625000000001V232.65625H206.71875A7.500000000000001 7.500000000000001 0 0 1 199.21875 225.15625V139.0625A7.343749999999999 7.343749999999999 0 0 1 206.71875 131.5625H216.40625V125.9375A7.500000000000001 7.500000000000001 0 0 1 223.90625 118.4375zM214.21875 217.65625H233.4375000000001V146.5625H214.21875zM295.78125 160.46875A7.500000000000001 7.500000000000001 0 0 1 303.28125 167.96875V214.84375H312.5A7.500000000000001 7.500000000000001 0 0 1 320 222.34375V249.0625000000001A7.500000000000001 7.500000000000001 0 0 1 312.5 256.5625H302.8125V303.4375A7.500000000000001 7.500000000000001 0 0 1 295.3125 310.9375A7.65625 7.65625 0 0 1 287.8125 303.4375V256.5625H278.125A7.500000000000001 7.500000000000001 0 0 1 270.625 249.0625000000001V222.9687500000001A7.500000000000001 7.500000000000001 0 0 1 278.125 215.4687500000001H287.8125V168.5937500000001A7.65625 7.65625 0 0 1 295.78125 160.46875zM286.09375 241.5625H305.46875V230.46875H286.09375zM367.8125 154.53125A7.500000000000001 7.500000000000001 0 0 1 375.3125 162.03125V173.4375H384.84375A7.500000000000001 7.500000000000001 0 0 1 392.34375 180.9375000000001V231.09375A7.500000000000001 7.500000000000001 0 0 1 384.84375 238.59375H375V280A7.500000000000001 7.500000000000001 0 0 1 367.5 287.5A7.343749999999999 7.343749999999999 0 0 1 360 280V238.59375H350.3125A7.500000000000001 7.500000000000001 0 0 1 342.8125 231.09375V180.9375A7.500000000000001 7.500000000000001 0 0 1 350.3125 173.4375H360V162.03125A7.343749999999999 7.343749999999999 0 0 1 367.8125 154.53125zM358.125 223.5937500000001H377.34375V188.4375000000001H358.125zM447.1875 340A7.343749999999999 7.343749999999999 0 0 1 439.6875 347.5A7.500000000000001 7.500000000000001 0 0 1 432.1875 340V328.125H421.875A7.65625 7.65625 0 0 1 414.375 320.625V216.5625A7.500000000000001 7.500000000000001 0 0 1 421.875 209.0625H431.5625V173.4375A7.65625 7.65625 0 0 1 439.0625 165.9375A7.500000000000001 7.500000000000001 0 0 1 446.5625000000001 173.4375V209.53125H456.2500000000001A7.500000000000001 7.500000000000001 0 0 1 463.7500000000001 217.03125V321.09375A7.65625 7.65625 0 0 1 456.2500000000001 328.59375H446.5625000000001zM449.375 224.53125H430V313.59375H449.375zM497.34375 80A7.500000000000001 7.500000000000001 0 0 0 489.8437499999999 72.5H10.15625A7.500000000000001 7.500000000000001 0 0 0 2.65625 80V420A7.500000000000001 7.500000000000001 0 0 0 10.15625 427.5A7.343749999999999 7.343749999999999 0 0 0 17.65625 420V87.5H489.84375A7.65625 7.65625 0 0 0 497.34375 80zM49.84375 335.46875A7.500000000000001 7.500000000000001 0 1 0 61.25 345.15625L152.65625 236.875L290.78125 363.4375A7.343749999999999 7.343749999999999 0 0 0 299.0625 364.6875L366.25 331.09375L434.375 399.21875A7.500000000000001 7.500000000000001 0 0 0 445 388.59375L372.96875 316.71875A7.187500000000001 7.187500000000001 0 0 0 364.375 315.3125L296.875 348.90625L156.25 220.46875A7.8125 7.8125 0 0 0 151.09375 218.59375H151.09375A7.343749999999999 7.343749999999999 0 0 0 145.78125 221.25z" />
    <glyph glyph-name="environment"
      unicode="&#xEA30;"
      horiz-adv-x="500" d="M205.46875 11.09375A194.21875 194.21875 0 1 0 399.53125 205.15625A194.375 194.375 0 0 0 205.46875 11.09375zM210 19.6875L218.75 21.875C243.4375 28.1249999999999 265.625 53.125 281.25 89.9999999999999L283.75 96.4062499999999L277.34375 98.90625A198.75000000000003 198.75000000000003 0 0 1 217.5 110.9374999999999L210.46875 110.9374999999999V19.375zM194.375 110.9375A201.5625 201.5625 0 0 1 134.6875 98.9062500000001L128.125 96.40625L130.78125 90C146.40625 52.34375 168.28125 27.5 193.28125 21.8750000000001L201.5625 19.6875V111.40625zM113.59375 89.53125A139.375 139.375 0 0 1 88.4375 72.34375L82.34375 67.1875L88.4375 62.1875A187.5 187.5 0 0 1 140.625 31.25L164.21875 22.65625L148.59375 41.875A168.75 168.75 0 0 0 122.8125 85.78125L119.84375 92.4999999999999zM287.96875 86.09375A174.84375 174.84375 0 0 0 262.1875 42.34375L246.5625000000001 22.9687500000001L269.6875 31.25A186.09375 186.09375 0 0 1 322.5 62.5L328.75 67.5L322.65625 72.8125A136.40625 136.40625 0 0 1 296.875 89.375L290.3125 92.8124999999999zM310 194.21875A331.875 331.875 0 0 0 295.625 106.5625L293.90625 101.25L298.90625 98.59375A152.03125 152.03125 0 0 0 330.15625 77.34375L334.84375 73.125L339.375 77.8125A184.375 184.375 0 0 1 390.625 193.75L390.625 200.78125H310.15625zM20.78125 194.21875A185.15625 185.15625 0 0 1 71.5625 78.125L76.09375 73.4375L80.9375 77.65625A149.06249999999997 149.06249999999997 0 0 0 112.1875 98.90625L117.1875 101.5625L115.625 106.875A320.625 320.625 0 0 0 101.09375 194.53125V200.9375H20.3125zM210 120.78125L216.40625 120.78125A200.625 200.625 0 0 0 278.90625 107.96875L285.625 105.46875L287.8125 112.34375A328.125 328.125 0 0 1 300.625 194.6875V201.5625000000001H210zM109.375 193.75A315.3125 315.3125 0 0 1 122.1875 111.40625L124.21875 104.5312499999999L130.9375 107.0312499999999A201.71875 201.71875 0 0 0 193.4375 119.84375L199.6875 119.84375V200.625H109.375zM329.375 333.125A147.8125 147.8125 0 0 0 298.125 311.875L293.125 309.375L294.84375 303.90625A325.46874999999994 325.46874999999994 0 0 0 309.21875 216.40625L309.21875 209.84375H390.625L390.625 217.03125A184.0625 184.0625 0 0 1 339.6875000000001 332.96875L335.3125 337.65625zM279.375 303.125A206.09374999999997 206.09374999999997 0 0 0 216.875 290.46875L210.46875 290.46875V210H301.71875V216.875A326.5625 326.5625 0 0 1 288.90625 299.0625L286.71875 306.09375zM123.125 298.75A312.5 312.5 0 0 1 109.375 216.5625L109.375 209.6875H200.625V290.15625L194.375 290.15625A206.09374999999997 206.09374999999997 0 0 0 131.875 302.8125L125 305.78125zM71.5625 332.8125A185.78125000000003 185.78125000000003 0 0 1 20.78125 216.8750000000001L20.78125 209.6875H100.625V216.0937500000001A326.71875 326.71875 0 0 0 115.15625 303.75L116.71875 309.0625L111.71875 311.71875A146.87500000000003 146.87500000000003 0 0 0 80.46875 332.96875L75.625 337.1875zM210 299.0625L217.03125 299.0625A203.125 203.125 0 0 1 276.875 311.09375L283.28125 313.59375L281.25 320.3125C265.625 357.96875 243.75 382.8125 218.75 388.4375L210 390.625V299.0625zM192.65625 388.59375C167.8125 382.34375 145.78125 357.34375 130.15625 320.3125L127.65625 314.0625L134.0625 311.5625A198.75000000000003 198.75000000000003 0 0 1 193.90625 299.53125L200.9375 299.53125V390.625zM262.03125 368.125A166.09375 166.09375 0 0 0 287.8125 324.21875L290.78125 317.5L297.1875 320.9375A143.28125 143.28125 0 0 1 322.5 337.96875L328.125 343.75L321.875 348.75A187.5 187.5 0 0 1 269.21875 379.0625L245.625 387.8125zM140.625 378.59375A186.09375 186.09375 0 0 1 88.4375 348.28125L82.1875 343.28125L88.28125 337.96875A133.90625 133.90625 0 0 1 113.4375 320.9375L120 317.5L122.8125 324.21875A170.46875 170.46875 0 0 0 148.59375 368.125L164.21875 387.5zM428.90625 155.15625C430.15625 160.46875 431.09375 166.09375 432.03125 171.5625A184.375 184.375 0 0 1 478.90625 282.8125L478.90625 290H417.96875L414.21875 299.0625H478.9062500000001L478.9062500000001 306.2500000000001A184.375 184.375 0 0 1 428.4375 421.875L424.0625 426.5625L419.21875 421.875A150.9375 150.9375 0 0 0 387.96875 400.625L382.8125 398.125L384.53125 392.65625A316.71875 316.71875 0 0 0 397.34375 330.15625C393.75 335.46875 390.3125 340.46875 386.40625 345.78125A323.75 323.75 0 0 1 377.1875 387.5L375 395.3125L368.4375 392.8125A178.12500000000003 178.12500000000003 0 0 0 346.875 386.25A109.375 109.375 0 0 1 337.65625 393.125A187.5 187.5 0 0 1 365.625 401.09375L372.1875 403.59375L369.53125 410C353.90625 447.65625 332.03125 472.5 307.03125 478.125L298.75 480.3125V415.15625L289.6875 419.0625V480.3125L281.25 478.125A86.71875 86.71875 0 0 1 231.25 433.75L222.34375 433.75A149.06249999999997 149.06249999999997 0 0 0 237.96875 456.875L253.59375 476.09375L230.46875 468.75A180.9375 180.9375 0 0 1 177.65625 437.5L171.875 432.8125H171.875C166.40625 432.03125 160.9375 431.09375 155.46875 429.84375A194.0625 194.0625 0 0 0 489.0625 295A191.40625 191.40625 0 0 0 429.53125 155.15625zM350.78125 457.34375A171.87499999999997 171.87499999999997 0 0 0 376.5625 413.59375L379.375 406.71875L385.9375 410.15625A138.90625 138.90625 0 0 1 411.09375 427.1875L417.1875 432.5L411.5625 437.5A186.09375 186.09375 0 0 1 359.375 467.8125L335.15625 476.5625z" />
    <glyph glyph-name="globe"
      unicode="&#xEA31;"
      horiz-adv-x="500" d="M289.84375 309.6875C304.2187500000001 297.5 296.5625 285.3125 289.84375 276.09375A83.75000000000001 83.75000000000001 0 0 1 272.65625 237.34375C271.5625 230.78125 269.6875 228.2812500000001 267.5 227.8125000000001H265.625C262.1875 228.5937500000001 258.59375 233.9062500000001 256.875 236.4062500000001A33.75 33.75 0 0 0 250.4687500000001 264.5312500000001C251.8750000000001 283.9062500000001 238.1250000000001 272.5000000000001 233.4375000000001 297.6562500000001S240.1562500000001 327.0312500000001 258.59375 327.0312500000001S275.3125 321.71875 289.84375 309.6875zM348.75 310.625A8.125 8.125 0 0 1 348.75 297.5C352.8125000000001 293.90625 360.9375 289.375 363.4375 297.5S353.75 313.59375 348.75 310.625zM310 421.875S306.71875 418.59375 310 406.25S319.21875 391.40625 336.25 398.28125C343.4375 401.25 349.0625 399.6875 348.28125 392.5C346.5625 376.875 334.21875 377.65625 343.4375 352.5C349.0625 336.875 362.65625 331.5625 367.96875 319.84375A29.843750000000004 29.843750000000004 0 0 1 380.46875 308.59375A112.34375 112.34375 0 0 1 310.9375 445.46875A22.96875 22.96875 0 0 0 304.0625 437.65625A8.59375 8.59375 0 0 1 310 421.875zM174.6875 353.59375S181.09375 338.90625 219.6875 320.9375C219.6875 320.9375 227.03125 320.9375 218.4375 328.90625S200.46875 347.8125 211.09375 353.28125S224.84375 358.28125 226.71875 348.28125S237.96875 344.0625 238.75 353.75S256.25 373.4375 266.875 378.125S287.5 384.375 286.25 392.34375S281.25 406.25 265.625 406.25S256.25 384.375 242.5 397.5S245.46875 407.1875 252.34375 410S266.09375 425.625 254.0625 425.625S244.6875 420.625 235.15625 424.0625S221.40625 412.1875 215.46875 414.375A66.56249999999999 66.56249999999999 0 0 0 199.84375 425.15625A111.09375000000001 111.09375000000001 0 0 1 164.53125 370.3125A50 50 0 0 1 174.6875 353.59375zM412.96875 215.3125A4.375 4.375 0 0 1 410 214.0625000000001L408.90625 213.1250000000001A186.25 186.25 0 0 0 85.9375 340A184.375 184.375 0 0 0 140.625 471.875L140.625 472.8125L146.40625 477.03125A4.53125 4.53125 0 0 1 148.4375 480.46875A4.53125 4.53125 0 0 1 143.28125 484.375A4.21875 4.21875 0 0 1 140.15625 482.96875L134.53125 477.03125L134.53125 477.03125A193.59375 193.59375 0 0 1 77.1875 338.90625A195.625 195.625 0 0 1 261.5625 144.84375L267.96875 144.84375V18.75H193.75A4.53125 4.53125 0 0 1 193.75 9.84375H351.09375A4.53125 4.53125 0 1 1 351.09375 18.9062499999999H277.03125V144.6875L283.4375 144.6875A194.21875 194.21875 0 0 1 411.09375 203.125L411.09375 203.125L416.25 207.8125A4.6875 4.6875 0 0 1 417.8125 211.09375A4.53125 4.53125 0 0 1 412.96875 215.3125zM121.875 340.3125A150.625 150.625 0 1 0 272.5 189.84375A150.78125 150.78125 0 0 0 121.875 339.84375zM130.9375 340.3125A141.5625 141.5625 0 1 1 272.5 482.03125A141.71875 141.71875 0 0 1 130.9375 339.84375z" />
    <glyph glyph-name="report"
      unicode="&#xEA32;"
      horiz-adv-x="500" d="M306.71875 10.9375H305.78125L67.5 64.0625A4.53125 4.53125 0 0 0 63.90625 68.7500000000001V431.40625A5 5 0 0 0 67.5 436.09375L305.78125 488.90625A4.375 4.375 0 0 0 309.6875 487.96875A4.0625 4.0625 0 0 0 311.40625 484.375V15.625A4.21875 4.21875 0 0 0 309.6875 12.03125A3.5937500000000004 3.5937500000000004 0 0 0 306.71875 10.9375zM73.28125 72.5L302.03125 21.875V478.28125L73.28125 427.65625zM382.6562500000001 72.5H338.90625A4.84375 4.84375 0 0 0 334.0625000000001 77.34375A5 5 0 0 0 338.90625 82.1874999999999H377.8125V391.71875A4.84375 4.84375 0 0 0 387.5 391.71875V78.125A4.84375 4.84375 0 0 0 382.65625 72.96875zM382.6562500000001 376.875A4.84375 4.84375 0 0 0 377.8125000000001 381.71875V417.8125H338.90625A4.84375 4.84375 0 1 0 338.90625 427.34375H382.6562500000001A4.84375 4.84375 0 0 0 387.5 421.875V382.1875A4.84375 4.84375 0 0 0 382.65625 377.34375zM431.25 113.125H414.6875A4.84375 4.84375 0 0 0 414.6875 122.8125H426.5625V357.1875A4.84375 4.84375 0 1 0 436.09375 357.1875V117.96875A5 5 0 0 0 431.25 113.125zM431.25 128.75A4.84375 4.84375 0 0 0 426.4062500000001 133.59375V367.96875H414.53125A4.84375 4.84375 0 0 0 414.53125 377.65625H431.25A5 5 0 0 0 436.09375 372.8125V132.96875A5 5 0 0 0 431.25 128.125zM109.375 343.75A4.84375 4.84375 0 0 0 104.6875 347.5A4.6875 4.6875 0 0 0 108.28125 353.125L260.3125 383.125A4.6875 4.6875 0 0 0 265.78125 379.21875A4.53125 4.53125 0 0 0 262.1875 373.75L110.15625 343.75zM109.375 277.96875A4.6875 4.6875 0 0 0 104.6875 282.5A4.6875 4.6875 0 0 0 109.375 286.875L261.25 296.09375A4.6875 4.6875 0 0 0 266.25 291.71875A4.84375 4.84375 0 0 0 261.875 286.71875L109.375 277.5z" />
    <glyph glyph-name="analysis"
      unicode="&#xEA33;"
      horiz-adv-x="500" d="M135.15625 217.34375A26.875 26.875 0 0 1 162.03125 244.21875A26.09375 26.09375 0 0 1 154.6875 262.34375L156.09375 262.34375A3.125 3.125 0 0 1 158.4375 263.28125L194.53125 298.90625A3.125 3.125 0 0 1 195.46875 300.9375A26.40625 26.40625 0 0 1 211.09375 295.3125A26.71875 26.71875 0 0 1 228.9062500000001 302.34375A3.4374999999999996 3.4374999999999996 0 0 1 229.6875000000001 300.625L265.625 267.5A26.5625 26.5625 0 0 1 260.78125 251.875A26.875 26.875 0 0 1 314.375 251.875A25.937499999999996 25.937499999999996 0 0 1 308.4375000000001 268.4375L378.75 367.1875L384.6875 321.875A3.4374999999999996 3.4374999999999996 0 0 1 388.125 318.75H388.125A3.4374999999999996 3.4374999999999996 0 0 1 391.09375 322.65625L384.21875 376.25A2.6562500000000004 2.6562500000000004 0 0 1 384.21875 378.4375L383.4375 378.4375H383.4375A2.9687500000000004 2.9687500000000004 0 0 1 381.09375 378.4375H381.09375L325 368.75A3.5937500000000004 3.5937500000000004 0 0 1 322.1875 364.6875A3.4374999999999996 3.4374999999999996 0 0 1 326.2500000000001 361.875L373.1250000000001 371.40625L303.5937500000001 273.90625A25.781249999999996 25.781249999999996 0 0 1 287.9687500000001 279.21875A27.03125 27.03125 0 0 1 270.6250000000001 272.65625L234.375 305.3125A3.2812499999999996 3.2812499999999996 0 0 1 232.65625 305.3125A26.249999999999996 26.249999999999996 0 0 1 237.96875 320.9375A26.875 26.875 0 0 1 184.375 320.9375A27.499999999999996 27.499999999999996 0 0 1 191.09375 303.28125A2.8125 2.8125 0 0 1 189.0625 302.5L153.125 266.875A3.125 3.125 0 0 1 153.125 263.125A26.09375 26.09375 0 0 1 135.15625 270.15625A26.875 26.875 0 0 1 135.15625 216.5625zM287.96875 272.1875A19.84375 19.84375 0 1 0 268.125 252.34375A20 20 0 0 0 287.96875 272.1875zM211.5625 341.5625A19.84375 19.84375 0 1 0 191.875 321.71875A19.84375 19.84375 0 0 0 211.5625 341.5625zM135.15625 263.4375A19.84375 19.84375 0 1 0 115.3125 243.75A19.84375 19.84375 0 0 0 135.15625 263.90625zM485.625 454.21875H253.4375V485.9375A3.4374999999999996 3.4374999999999996 0 0 1 250 489.375A3.4374999999999996 3.4374999999999996 0 0 1 246.5625 485.9375V454.6875H14.375A3.4374999999999996 3.4374999999999996 0 0 1 10.9375 451.25A3.4374999999999996 3.4374999999999996 0 0 1 14.375 447.65625H44.21875V161.5625A3.4374999999999996 3.4374999999999996 0 0 1 47.65625 158.125H246.5625V99.0625L117.03125 17.1875A3.5937500000000004 3.5937500000000004 0 0 1 115.9375 12.3437500000001A3.7500000000000004 3.7500000000000004 0 0 1 118.90625 10.6250000000001A3.90625 3.90625 0 0 1 120.625 10.6250000000001L246.5625000000001 90.1562500000001V35.9375A3.4374999999999996 3.4374999999999996 0 0 1 250 32.5000000000001A3.4374999999999996 3.4374999999999996 0 0 1 253.4375 35.9375V90.78125L379.375 11.25A2.34375 2.34375 0 0 1 381.09375 11.25A3.2812499999999996 3.2812499999999996 0 0 1 384.0625000000001 12.96875A3.5937500000000004 3.5937500000000004 0 0 1 382.96875 17.8124999999999L253.4375000000001 99.6874999999999V158.125H452.1875A3.4374999999999996 3.4374999999999996 0 0 1 455.625 161.5625V447.1875H485.625A3.4374999999999996 3.4374999999999996 0 0 1 489.0624999999999 450.78125A3.4374999999999996 3.4374999999999996 0 0 1 485.625 454.21875zM448.75 165H51.40625V446.25H448.75z" />
    <glyph glyph-name="table"
      unicode="&#xEA34;"
      horiz-adv-x="500" d="M115.3125 9.84375A15.625 15.625 0 0 0 99.6875 25.46875V384.84375A15.625 15.625 0 0 0 115.3125 400.46875H474.6875A15.625 15.625 0 0 0 490.3125 384.84375V25.46875A15.625 15.625 0 0 0 474.6875 9.84375zM109.375 18.90625H481.09375V99.6875H109.375zM109.375 108.5937500000001H481.09375V390.625H109.375zM26.40625 99.6875000000001A15.625 15.625 0 0 0 10.78125 115.3125000000001V474.6875000000001A15.625 15.625 0 0 0 26.40625 490.3125000000001H385.78125A15.625 15.625 0 0 0 401.40625 474.6875000000001V440.78125A4.53125 4.53125 0 1 0 392.5 440.78125V481.09375H18.90625V198.4375H59.21875A4.53125 4.53125 0 0 0 59.21875 189.375H18.90625V108.5937500000001H59.21875A4.53125 4.53125 0 1 0 59.21875 99.6875000000001z" />
  </font>
</defs>
</svg>
